HIERARCHY
ROOT Pelvis
{
	OFFSET 0.000000 0.000000 0.000000
	CHANNELS 6 Xposition Yposition Zposition Xrotation Yrotation Zrotation
	JOINT LeftUpLeg_virtual
	{
		OFFSET 0.000000 0.000000 0.000000
		CHANNELS 3 Xrotation Yrotation Zrotation
		JOINT LeftUpLeg
		{
			OFFSET 18.735201 -5.666702 -4.541200
			CHANNELS 3 Xrotation Yrotation Zrotation
			JOINT LeftLeg
			{
				OFFSET -0.021200 -31.938179 0.493100
				CHANNELS 3 Xrotation Yrotation Zrotation
				JOINT LeftFoot
				{
					OFFSET 0.021200 -31.938179 -4.336299
					CHANNELS 3 Xrotation Yrotation Zrotation
					JOINT LeftToeBase
					{
						OFFSET 0.943001 -26.722000 15.023500
						CHANNELS 3 Xrotation Yrotation Zrotation
						End Site
						{
							OFFSET 0 0 0
						}
					}
				}
			}
		}
	}
	JOINT RightUpLeg_virtual
	{
		OFFSET 0.000000 0.000000 0.000000
		CHANNELS 3 Xrotation Yrotation Zrotation
		JOINT RightUpLeg
		{
			OFFSET -18.735201 -5.666702 -4.541200
			CHANNELS 3 Xrotation Yrotation Zrotation
			JOINT RightLeg
			{
				OFFSET 0.018946 -31.938133 0.493100
				CHANNELS 3 Xrotation Yrotation Zrotation
				JOINT RightFoot
				{
					OFFSET -0.018946 -31.938126 -4.336299
					CHANNELS 3 Xrotation Yrotation Zrotation
					JOINT RightToeBase
					{
						OFFSET -0.943001 -26.722004 15.023500
						CHANNELS 3 Xrotation Yrotation Zrotation
						End Site
						{
							OFFSET 0 0 0
						}
					}
				}
			}
		}
	}
	JOINT Hips_virtual
	{
		OFFSET 0.000000 0.000000 0.000000
		CHANNELS 3 Xrotation Yrotation Zrotation
		JOINT Hips
		{
			OFFSET -0.000000 -0.000000 -0.000000
			CHANNELS 3 Xrotation Yrotation Zrotation
			JOINT Spine
			{
				OFFSET 0.000000 10.199997 -0.299500
				CHANNELS 3 Xrotation Yrotation Zrotation
				JOINT Spine1
				{
					OFFSET 0.000000 11.900002 -1.516600
					CHANNELS 3 Xrotation Yrotation Zrotation
					JOINT Spine2
					{
						OFFSET 0.000000 13.600006 -2.842500
						CHANNELS 3 Xrotation Yrotation Zrotation
						JOINT Neck_virtual
						{
							OFFSET 0.000000 0.000000 0.000000
							CHANNELS 3 Xrotation Yrotation Zrotation
							JOINT Neck
							{
								OFFSET 0.000000 9.624100 -2.890100
								CHANNELS 3 Xrotation Yrotation Zrotation
								JOINT Head
								{
									OFFSET 0.000000 14.068802 -1.351900
									CHANNELS 3 Xrotation Yrotation Zrotation
									End Site
									{
										OFFSET 0 0 0
									}
								}
							}
						}
						JOINT LeftShoulder_virtual
						{
							OFFSET 0.000000 0.000000 0.000000
							CHANNELS 3 Xrotation Yrotation Zrotation
							JOINT LeftShoulder
							{
								OFFSET 15.263000 10.923401 -0.547700
								CHANNELS 3 Xrotation Yrotation Zrotation
								JOINT LeftArm
								{
									OFFSET 25.438599 -2.830597 -13.032500
									CHANNELS 3 Xrotation Yrotation Zrotation
									JOINT LeftForeArm
									{
										OFFSET 29.960503 0.000000 0.000000
										CHANNELS 3 Xrotation Yrotation Zrotation
										JOINT LeftHand
										{
											OFFSET 27.849251 0.000000 0.000000
											CHANNELS 3 Xrotation Yrotation Zrotation
											End Site
											{
												OFFSET 0 0 0
											}
										}
									}
								}
							}
						}
						JOINT RightShoulder_virtual
						{
							OFFSET 0.000000 0.000000 0.000000
							CHANNELS 3 Xrotation Yrotation Zrotation
							JOINT RightShoulder
							{
								OFFSET -15.263000 10.923401 -0.547700
								CHANNELS 3 Xrotation Yrotation Zrotation
								JOINT RightArm
								{
									OFFSET -25.438599 -2.830597 -13.032500
									CHANNELS 3 Xrotation Yrotation Zrotation
									JOINT RightForeArm
									{
										OFFSET -29.960503 0.000000 0.000000
										CHANNELS 3 Xrotation Yrotation Zrotation
										JOINT RightHand
										{
											OFFSET -27.849251 0.000000 0.000000
											CHANNELS 3 Xrotation Yrotation Zrotation
											End Site
											{
												OFFSET 0 0 0
											}
										}
									}
								}
							}
						}
					}
				}
			}
		}
	}
}
MOTION
Frames: 9
Frame Time: 0.03333333
47.084763 87.793114 28.310488 0.000000 0.000000 0.000000 -10.790567 -56.941286 -10.727627 -13.898379 11.994213 7.009251 52.903756 -10.282180 2.001649 -34.438852 15.227104 3.253971 0.000000 0.000000 0.000000 -10.790567 -56.941286 -10.727627 -20.489471 20.070782 -15.680916 40.543211 -4.594729 -7.880100 38.978483 3.889178 23.539011 0.000000 0.000000 0.000000 -10.790567 -56.941286 -10.727627 0.000000 0.000000 0.000000 9.725103 7.950553 -0.929930 2.662958 17.145940 -2.401210 0.000000 0.000000 0.000000 3.209015 13.582547 -1.840705 -0.334172 -1.641655 0.146712 0.000000 0.000000 0.000000 3.209015 13.582547 -1.840705 -6.690960 -24.917024 -29.325745 -17.150497 26.242823 -47.937737 0.000001 -37.261400 -0.000009 0.000000 0.000000 0.000000 3.209015 13.582547 -1.840705 16.288806 -29.166721 21.993790 17.892155 -24.268789 42.118734 -179.999923 66.114565 179.999923 0.000000 0.000000 0.000000 
47.264214 88.182434 31.259037 0.000000 0.000000 0.000000 -11.439686 -54.665269 -11.529927 -11.251263 12.276848 4.850975 51.653736 -10.057821 2.518226 -35.151364 13.612127 5.101727 0.000000 0.000000 0.000000 -11.439686 -54.665269 -11.529927 -28.485172 22.122107 -8.422612 51.558240 -4.516785 -8.074709 32.351065 9.162344 18.066612 0.000000 0.000000 0.000000 -11.439686 -54.665269 -11.529927 0.000000 0.000001 0.000000 10.441762 5.664687 -0.508965 2.886334 16.500525 -2.402979 0.000000 0.000000 0.000000 3.439224 13.460949 -1.993053 -0.331650 -1.621514 0.196741 0.000000 0.000000 0.000000 3.439224 13.460949 -1.993053 -7.018225 -26.326418 -29.169303 -18.434947 23.003976 -47.374014 0.000009 -36.923265 0.000020 0.000000 0.000000 0.000000 3.439224 13.460949 -1.993053 16.511899 -29.414705 22.476727 18.832070 -26.862719 43.040492 -179.999964 65.978657 179.999964 0.000000 0.000000 0.000000 
47.454140 88.739548 34.229584 0.000000 0.000000 0.000000 -11.002121 -51.421468 -11.571835 -9.161476 12.351240 3.630335 49.813707 -9.765064 2.524084 -35.027853 10.489073 6.590164 0.000000 0.000000 0.000000 -11.002121 -51.421468 -11.571835 -34.936435 21.841697 -2.434043 58.128216 -5.690914 -7.248285 26.967281 16.407521 14.571821 0.000000 0.000000 0.000000 -11.002121 -51.421468 -11.571835 -0.000001 -0.000002 -0.000000 10.787240 2.701758 0.263359 3.054876 15.663582 -2.352307 0.000000 0.000000 0.000000 3.615013 13.134277 -2.081372 -0.307015 -1.578038 0.250801 0.000000 0.000000 0.000000 3.615013 13.134277 -2.081372 -7.328470 -28.082442 -28.771113 -18.947621 20.246115 -47.384506 0.000022 -37.580281 0.000010 0.000000 0.000000 0.000000 3.615013 13.134277 -2.081372 16.552036 -29.563019 22.660660 19.613138 -28.573950 43.849688 179.999964 66.371489 -179.999978 0.000000 0.000000 0.000000 
47.618759 89.347260 37.168518 0.000000 0.000000 0.000000 -9.898768 -47.787907 -11.053400 -7.331090 12.203083 3.051564 47.369476 -9.691691 1.974327 -34.337256 6.800483 7.739247 0.000000 0.000000 0.000000 -9.898768 -47.787907 -11.053400 -39.429299 20.744830 1.478419 60.287402 -7.192921 -5.957431 22.610595 21.417417 13.902518 0.000000 0.000000 0.000000 -9.898768 -47.787907 -11.053400 0.000000 0.000003 0.000000 10.894449 -0.502126 1.120121 3.195167 14.763920 -2.286728 0.000000 0.000000 0.000000 3.762189 12.720725 -2.143569 -0.288680 -1.531409 0.310723 0.000000 0.000000 0.000000 3.762189 12.720725 -2.143569 -7.598350 -30.007678 -28.209154 -18.872561 17.780965 -47.791612 0.000001 -39.372735 -0.000009 0.000000 0.000000 0.000000 3.762189 12.720725 -2.143569 16.551869 -29.456588 22.826197 19.255352 -29.305073 43.890912 -179.999882 67.122270 179.999896 0.000000 0.000000 0.000000 
47.745770 89.921852 40.023674 0.000000 0.000000 0.000000 -8.658658 -44.492641 -10.404850 -5.366227 12.195620 3.233144 44.180884 -9.887711 0.529681 -33.319773 2.870960 8.493707 0.000000 0.000000 0.000000 -8.658658 -44.492641 -10.404850 -42.315494 19.870772 3.816366 58.869728 -8.469393 -4.596684 18.476201 21.668287 14.728910 0.000000 0.000000 0.000000 -8.658658 -44.492641 -10.404850 -0.000001 0.000001 0.000000 10.955481 -3.346943 1.935972 3.318394 13.964341 -2.238366 0.000000 0.000000 0.000000 3.892206 12.370903 -2.214524 -0.287593 -1.496620 0.374592 0.000000 0.000000 0.000000 3.892206 12.370903 -2.214524 -7.768322 -31.874287 -27.459048 -18.730527 15.025853 -48.431707 0.000008 -41.619679 0.000016 0.000000 0.000000 0.000000 3.892206 12.370903 -2.214524 16.623584 -29.172500 23.168922 16.707749 -28.816179 42.936922 -179.999964 68.118078 179.999964 0.000000 0.000000 0.000000 
47.785118 90.153587 42.774086 0.000000 0.000000 0.000000 -7.255618 -41.554557 -9.491042 -3.725908 12.628699 3.964848 41.440817 -10.117902 -1.843324 -32.608860 -1.714616 9.697331 0.000000 0.000000 0.000000 -7.255618 -41.554557 -9.491042 -44.053207 19.135397 5.024305 54.462098 -9.020370 -3.066360 15.983998 18.444458 15.055011 0.000000 0.000000 0.000000 -7.255618 -41.554557 -9.491042 0.000000 -0.000001 0.000000 10.941230 -5.889553 2.488575 3.383853 13.256647 -2.218390 0.000000 0.000000 0.000000 3.964103 12.066111 -2.304480 -0.289168 -1.470724 0.452939 0.000000 0.000000 0.000000 3.964103 12.066111 -2.304480 -7.841342 -33.725090 -26.533869 -18.654133 12.292828 -49.030813 -0.000002 -44.714995 -0.000019 0.000000 0.000000 0.000000 3.964103 12.066111 -2.304480 16.751488 -28.858222 23.642867 12.560957 -26.854718 41.389553 -179.999868 69.256820 179.999868 0.000000 0.000000 0.000000 
47.756786 90.057381 45.435627 0.000000 0.000000 0.000000 -5.760705 -38.440448 -8.305303 -3.082845 13.168501 4.205969 40.384146 -10.205734 -3.063110 -32.101869 -6.076701 10.617906 0.000000 0.000000 0.000000 -5.760705 -38.440448 -8.305303 -44.079285 18.706027 4.496597 47.049270 -9.377302 -1.313296 15.313388 13.052890 16.084322 0.000000 0.000000 0.000000 -5.760705 -38.440448 -8.305303 -0.000001 -0.000003 -0.000000 10.974486 -8.483833 2.817693 3.444222 12.537727 -2.259614 0.000000 0.000000 0.000000 4.029725 11.694915 -2.441233 -0.304572 -1.454133 0.555161 0.000000 0.000000 0.000000 4.029725 11.694915 -2.441233 -7.832298 -35.558791 -25.497661 -18.948172 9.414042 -49.313218 -0.000025 -48.086673 -0.000035 0.000000 0.000000 0.000000 4.029725 11.694915 -2.441233 17.066334 -28.807399 24.438144 7.944116 -23.503140 39.614609 -179.999909 71.306430 179.999896 0.000000 0.000000 0.000000 
47.631435 89.852180 47.962296 0.000000 0.000000 0.000000 -4.327597 -35.295884 -7.067315 -2.645654 13.284002 3.896623 39.820467 -10.147194 -3.600546 -31.807815 -9.875461 11.747519 0.000000 0.000000 0.000000 -4.327597 -35.295884 -7.067315 -42.648432 18.355544 3.007573 36.841470 -9.785209 0.283197 16.197495 6.043250 17.324216 0.000000 0.000000 0.000000 -4.327597 -35.295884 -7.067315 0.000000 0.000001 0.000000 11.080656 -10.876987 3.088454 3.554179 11.869934 -2.370830 0.000000 0.000000 0.000000 4.145770 11.312881 -2.631263 -0.343491 -1.458090 0.671139 0.000000 0.000000 0.000000 4.145770 11.312881 -2.631263 -7.821833 -37.400804 -24.562088 -19.794605 6.109711 -49.192351 -0.000010 -50.912954 -0.000008 0.000000 0.000000 0.000000 4.145770 11.312881 -2.631263 17.517115 -29.061540 25.458511 4.338397 -20.380267 38.911472 -179.999786 74.295779 179.999773 0.000000 0.000000 0.000000 
47.159874 89.648590 50.265717 0.000000 0.000000 0.000000 -2.891735 -32.878864 -5.838076 -1.962836 12.974958 3.212879 38.956315 -9.943155 -3.711505 -31.718818 -12.388087 12.810539 0.000000 0.000000 0.000000 -2.891735 -32.878864 -5.838076 -40.342184 17.808021 1.137792 24.548350 -10.236458 1.700563 16.635445 -0.541886 19.256269 0.000000 0.000000 0.000000 -2.891735 -32.878864 -5.838076 -0.000000 -0.000002 -0.000001 10.983795 -12.563750 3.301760 3.665550 11.395332 -2.486489 0.000000 0.000000 0.000000 4.264213 11.053667 -2.808295 -0.375261 -1.478430 0.768668 0.000000 0.000000 0.000000 4.264213 11.053667 -2.808295 -7.900119 -39.101648 -23.993275 -21.078870 2.579745 -48.985342 -0.000005 -53.042727 -0.000008 0.000000 0.000000 0.000000 4.264213 11.053667 -2.808295 17.584020 -29.177950 25.863071 3.334545 -18.864159 39.953543 -179.999786 77.096252 179.999800 0.000000 0.000000 0.000000 
